<svg width="24" height="23" viewBox="0 0 24 23" fill="none" xmlns="http://www.w3.org/2000/svg">
<g clip-path="url(#clip0_24_2230)">
<path d="M14 17.9993C14.0003 19.1075 14.3687 20.1842 15.0474 21.0603C15.7262 21.9363 16.6767 22.5621 17.7497 22.8392C18.8227 23.1163 19.9574 23.0291 20.9754 22.5913C21.9935 22.1534 22.8372 21.3898 23.3741 20.4203C23.911 19.4508 24.1105 18.3304 23.9415 17.2352C23.7724 16.14 23.2442 15.1319 22.44 14.3695C21.6358 13.607 20.601 13.1334 19.4983 13.0229C18.3956 12.9125 17.2875 13.1715 16.348 13.7593C16.67 11.8234 17.3136 9.95493 18.252 8.2313C19.55 5.87131 21.204 4.2093 22.708 2.7073C22.8958 2.51953 23.0013 2.26485 23.0013 1.9993C23.0013 1.73375 22.8958 1.47908 22.708 1.2913C22.5202 1.10353 22.2655 0.998041 22 0.998041C21.7344 0.998041 21.4798 1.10353 21.292 1.2913L21.27 1.3153C19.776 2.8093 17.942 4.6433 16.498 7.2673C15.04 9.9233 14 13.3393 14 17.9993ZM2.34799 13.7593C3.28747 13.1715 4.39561 12.9125 5.4983 13.0229C6.60099 13.1334 7.63575 13.607 8.43999 14.3695C9.24423 15.1319 9.77238 16.14 9.94145 17.2352C10.1105 18.3304 9.91095 19.4508 9.37408 20.4203C8.83721 21.3898 7.99346 22.1534 6.97541 22.5913C5.95735 23.0291 4.82269 23.1163 3.74969 22.8392C2.67668 22.5621 1.72615 21.9363 1.04743 21.0603C0.368708 20.1842 0.000263554 19.1075 -1.67291e-05 17.9993C-1.63217e-05 13.3393 1.03998 9.9233 2.49999 7.2673C3.94199 4.6433 5.77599 2.8073 7.26799 1.3153L7.29199 1.2913C7.47976 1.10353 7.73444 0.99804 7.99999 0.99804C8.26554 0.99804 8.52022 1.10353 8.70799 1.2913C8.89576 1.47908 9.00125 1.73375 9.00125 1.9993C9.00125 2.26485 8.89576 2.51953 8.70799 2.7073C7.20399 4.2093 5.54999 5.8693 4.25199 8.2313C3.31334 9.95555 2.66979 11.8227 2.34799 13.7593Z" fill="#374E2D"/>
</g>
<defs>
<clipPath id="clip0_24_2230">
<rect width="24" height="23" fill="white" transform="translate(24 23) rotate(-180)"/>
</clipPath>
</defs>
</svg>
