<svg width="95" height="62" viewBox="0 0 95 62" fill="none" xmlns="http://www.w3.org/2000/svg">
<g clip-path="url(#clip0_91_14)">
<path d="M57.643 17.9058H37.3404V16.9115H57.643V17.9058ZM36.3876 4.99888H35.3933V29.6012H36.3876V4.99888ZM59.5926 4.99888H58.5983V29.6012H59.5926V4.99888ZM67.9549 18.7456C67.7741 18.6038 67.5871 18.4682 67.3963 18.3402C67.1615 18.1832 66.9192 18.0376 66.6681 17.9058C65.6224 17.3496 64.4485 17.0044 63.2032 16.9278C63.05 16.9178 62.8956 16.9127 62.7412 16.9115C62.7173 16.9115 62.6935 16.9115 62.6696 16.9115H60.5467V17.9058H62.6696C66.8338 17.9058 70.2222 21.2941 70.2222 25.4596C70.2222 29.6251 66.8338 33.0122 62.6696 33.0122H28.304C24.1398 33.0122 20.7514 29.6238 20.7514 25.4596C20.7514 21.2954 24.1059 17.9397 28.2412 17.907C28.1207 17.8493 28.0027 17.7903 27.8847 17.7275C27.5055 17.5254 27.1415 17.2982 26.7937 17.0458C22.7977 17.7614 19.7559 21.2615 19.7559 25.4596C19.7559 30.1724 23.5899 34.0077 28.304 34.0077H62.6696C67.3824 34.0077 71.2177 30.1737 71.2177 25.4596C71.2177 22.7391 69.941 20.3124 67.9549 18.7456ZM72.8699 3.48737C71.2403 1.78628 68.9542 0.80957 66.5966 0.80957H32.4167C27.6712 0.80957 23.797 4.63105 23.7807 9.32754C23.7732 11.6174 24.6582 13.7704 26.274 15.3912C26.8853 16.0051 27.5746 16.5148 28.3178 16.9102C29.538 17.5605 30.9064 17.9045 32.3288 17.9045H34.4379V16.9102H32.3288C30.3063 16.9102 28.4069 16.1218 26.9782 14.6894C25.5508 13.257 24.7687 11.3538 24.775 9.33131C24.7901 5.18092 28.2173 1.80511 32.4167 1.80511H66.5953C68.6818 1.80511 70.7068 2.66884 72.1505 4.17659C73.5867 5.67555 74.3286 7.63274 74.2408 9.6891C74.0675 13.7227 70.7796 16.8864 66.7459 16.9115C66.8652 16.968 66.9845 17.0282 67.1025 17.091C67.4879 17.2956 67.8545 17.5241 68.2022 17.7752C69.8544 17.4827 71.3847 16.7081 72.6163 15.5255C74.2119 13.9939 75.1421 11.9363 75.2363 9.73179C75.3355 7.403 74.4956 5.18468 72.8711 3.48862L72.8699 3.48737Z" fill="#374E2D"/>
<path d="M9.93343 49.7222C9.74325 49.0281 9.47701 48.5526 9.1347 48.2959C8.80189 48.0392 8.36449 47.9108 7.8225 47.9108C7.2805 47.9108 6.86687 48.0439 6.58161 48.3102C6.29635 48.5669 6.15372 48.8854 6.15372 49.2658C6.15372 49.8838 6.47226 50.4021 7.10934 50.8205L9.36291 52.2895C10.3518 52.9361 10.8463 53.7016 10.8463 54.5859C10.8463 55.299 10.561 55.9219 9.99048 56.4544C9.42947 56.9773 8.60696 57.2388 7.52297 57.2388C6.43898 57.2388 5.49287 57.0677 4.68463 56.7254C4.83677 55.9456 4.91283 55.2467 4.91283 54.6287L5.29794 54.4575C5.44057 55.2372 5.66402 55.7745 5.9683 56.0693C6.27258 56.364 6.74326 56.5114 7.38034 56.5114C8.02693 56.5114 8.51663 56.3545 8.84944 56.0407C9.19175 55.7269 9.36291 55.3561 9.36291 54.9282C9.36291 54.3482 9.05387 53.8585 8.43581 53.4591L6.15372 51.9615C5.27892 51.391 4.84152 50.6588 4.84152 49.765C4.84152 49.0709 5.11252 48.4718 5.65451 47.9678C6.19651 47.4544 6.90491 47.1976 7.77971 47.1976C8.06497 47.1976 8.37876 47.2357 8.72107 47.3117C9.07289 47.3783 9.33913 47.4116 9.5198 47.4116C9.70046 47.4116 9.90966 47.3831 10.1474 47.326V47.54C10.1474 48.2341 10.2044 48.9044 10.3185 49.551L9.93343 49.7222ZM14.5592 51.0059C14.274 51.0344 14.06 51.0914 13.9174 51.177C13.7748 51.2626 13.7034 51.3339 13.7034 51.391C13.7034 51.4385 14.2074 53.017 15.2153 56.1263C16.2613 53.1406 16.7843 51.5716 16.7843 51.4195C16.7843 51.2103 16.5228 51.0724 15.9998 51.0059L15.957 50.5922C16.2803 50.6208 16.6226 50.635 16.9839 50.635L18.4388 50.5922L18.4816 51.0059C17.9966 51.0724 17.6971 51.2483 17.583 51.5336C17.1741 52.8078 16.4847 54.662 15.5148 57.0962C14.7827 58.9504 14.0838 60.1104 13.4182 60.5764C13.228 60.7095 13.0806 60.7856 12.976 60.8046C12.8809 60.8331 12.7859 60.8474 12.6908 60.8474C12.5957 60.8474 12.4578 60.7333 12.2771 60.5051C12.106 60.2864 11.9919 60.0677 11.9348 59.849L12.1488 59.578C12.3294 59.6635 12.5434 59.7063 12.7906 59.7063C13.4752 59.7063 14.1599 58.8363 14.8445 57.0962L14.3453 56.7967C13.6131 54.5336 13.0473 52.9504 12.648 52.0471L12.434 51.5907C12.3104 51.2769 12.0204 51.0819 11.564 51.0059L11.5212 50.5922C12.1773 50.6208 12.6813 50.635 13.0331 50.635L14.5164 50.5922L14.5592 51.0059ZM20.8838 51.8617L20.8695 53.83C20.8695 55.0566 20.9075 55.8553 20.9836 56.2261L21.0121 56.4116C21.0216 56.4781 21.1262 56.5447 21.3259 56.6112C21.5351 56.6683 21.7348 56.7063 21.925 56.7254L21.8822 57.139C21.4258 57.1105 20.9028 57.0962 20.3132 57.0962C19.7237 57.0962 19.2007 57.1105 18.7443 57.139L18.7871 56.7254C18.9678 56.7063 19.1579 56.6683 19.3576 56.6112C19.5668 56.5447 19.6762 56.4781 19.6857 56.4116C19.7617 56.0788 19.7998 55.4132 19.7998 54.4147C19.7998 52.7983 19.7617 51.8094 19.6857 51.448L18.7728 51.177L18.7443 50.8062C19.3529 50.8062 19.9804 50.7206 20.627 50.5495L20.898 50.6778V51.3624C21.9535 50.8109 22.8711 50.5352 23.6508 50.5352C24.1262 50.5352 24.4876 50.6303 24.7348 50.8205C24.982 51.0106 25.1056 51.3672 25.1056 51.8902V53.83C25.1056 55.0566 25.1389 55.8553 25.2055 56.2261L25.2483 56.4116C25.2578 56.4781 25.3624 56.5447 25.562 56.6112C25.7712 56.6683 25.9709 56.7063 26.1611 56.7254L26.1183 57.139C25.6619 57.1105 25.1389 57.0962 24.5494 57.0962C23.9598 57.0962 23.4369 57.1105 22.9804 57.139L23.0232 56.7254C23.2039 56.7063 23.3941 56.6683 23.5937 56.6112C23.8029 56.5447 23.9123 56.4781 23.9218 56.4116C23.9979 56.0788 24.0359 55.2182 24.0359 53.83V52.4464C24.0359 52.0756 23.9266 51.8189 23.7079 51.6762C23.4892 51.5336 23.1183 51.4623 22.5953 51.4623C22.0724 51.4623 21.5018 51.5954 20.8838 51.8617ZM29.792 57.139C29.3356 57.1105 28.8126 57.0962 28.2231 57.0962C27.6336 57.0962 27.1106 57.1105 26.6542 57.139L26.697 56.7254C26.8776 56.7063 27.0678 56.6683 27.2675 56.6112C27.4767 56.5447 27.586 56.4781 27.5955 56.4116C27.6811 55.7935 27.7239 54.6049 27.7239 52.8458C27.7239 49.9837 27.6954 48.3102 27.6383 47.8252L27.6098 47.5827L26.697 47.3117L26.6684 46.9409C27.277 46.9409 27.9046 46.8553 28.5512 46.6842L28.8222 46.8125C28.8031 48.0011 28.7936 49.7555 28.7936 52.0756V53.2166L31.0757 51.5051C31.1423 51.448 31.1756 51.391 31.1756 51.3339C31.1756 51.1247 30.8903 51.0154 30.3198 51.0059L30.3626 50.5922C30.9521 50.6208 31.4561 50.635 31.8744 50.635C32.2928 50.635 32.792 50.6208 33.3721 50.5922L33.4149 51.0059C32.8348 51.0914 32.3309 51.2864 31.903 51.5907L30.0773 52.9456L32.8158 56.4829C32.9109 56.597 33.0916 56.6683 33.3578 56.6968C33.4149 56.6968 33.4909 56.7016 33.586 56.7111C33.6811 56.7206 33.7429 56.7254 33.7714 56.7254L33.7286 57.139C33.1866 57.139 32.5733 57.1675 31.8887 57.2246L29.25 53.5447L28.8079 53.8727C28.8364 54.9567 28.8745 55.803 28.922 56.4116C28.9315 56.4781 29.0361 56.5447 29.2358 56.6112C29.445 56.6683 29.6447 56.7063 29.8348 56.7254L29.792 57.139ZM38.3157 50.4496C38.3917 50.4496 38.5153 50.5637 38.6865 50.7919C38.8672 51.0106 38.986 51.2293 39.0431 51.448L38.8291 51.719C38.4868 51.5859 38.1302 51.5193 37.7594 51.5193C37.3886 51.5193 37.051 51.6762 36.7467 51.99C36.4424 52.2943 36.2903 52.7888 36.2903 53.4734C36.2998 55.1469 36.3426 56.1215 36.4187 56.3973C36.4282 56.4734 36.5613 56.5447 36.818 56.6112C37.0843 56.6683 37.36 56.7063 37.6453 56.7254L37.6025 57.139C37.1461 57.1105 36.5661 57.0962 35.8624 57.0962C35.1683 57.0962 34.593 57.1105 34.1366 57.139L34.1794 56.7254C34.3696 56.7063 34.5692 56.6683 34.7784 56.6112C34.9876 56.5447 35.097 56.4781 35.1065 56.4116C35.1825 56.0788 35.2206 55.4132 35.2206 54.4147C35.2206 52.7983 35.1825 51.8094 35.1065 51.448L34.1936 51.177L34.1651 50.8062C34.7737 50.8062 35.4012 50.7206 36.0478 50.5495L36.3188 50.6778C36.2998 50.8205 36.2903 51.2103 36.2903 51.8474C36.5661 51.391 36.9131 51.0439 37.3315 50.8062C37.7594 50.5685 38.0875 50.4496 38.3157 50.4496ZM42.5883 51.2341C42.1985 51.2341 41.8609 51.3339 41.5757 51.5336C41.2904 51.7238 41.0812 51.9662 40.9481 52.261C40.6913 52.803 40.563 53.3212 40.563 53.8157C40.563 54.5954 40.7199 55.2467 41.0337 55.7697C41.3475 56.2832 41.8419 56.5399 42.517 56.5399C42.8784 56.5399 43.1969 56.4591 43.4726 56.2975C43.7484 56.1263 43.9576 55.9076 44.1002 55.6414C44.376 55.1469 44.5234 54.6525 44.5424 54.158C44.5424 52.2087 43.891 51.2341 42.5883 51.2341ZM42.6597 50.5352C43.7436 50.5352 44.5329 50.8109 45.0273 51.3624C45.5218 51.914 45.769 52.6842 45.769 53.6731C45.769 54.6525 45.4837 55.4892 44.9132 56.1834C44.3522 56.8775 43.5297 57.2246 42.4457 57.2246C41.3617 57.2246 40.5725 56.9536 40.078 56.4116C39.5836 55.8601 39.3364 55.0946 39.3364 54.1152C39.3364 53.1358 39.6169 52.2943 40.1779 51.5907C40.7484 50.887 41.5757 50.5352 42.6597 50.5352ZM57.0268 47.2832C57.6258 47.3117 58.2534 47.326 58.9095 47.326C59.5656 47.326 60.1932 47.3117 60.7922 47.2832L60.835 47.6968C60.3786 47.7919 60.0743 47.8775 59.9222 47.9536C59.77 48.0201 59.6845 48.139 59.6654 48.3102C59.5894 48.8712 59.5513 49.8886 59.5513 51.3624C59.5513 53.7491 59.5799 55.2325 59.6369 55.8125L59.6654 56.112C59.6845 56.2832 59.7748 56.4068 59.9364 56.4829C60.0981 56.5494 60.4119 56.6303 60.8778 56.7254L60.835 57.139C60.236 57.1105 59.5846 57.0962 58.881 57.0962C58.1773 57.0962 57.526 57.1105 56.9269 57.139L56.8841 56.7254C57.3691 56.6303 57.6971 56.5447 57.8683 56.4686C58.0394 56.3925 58.1345 56.2737 58.1536 56.112C58.2296 55.6081 58.2677 54.3767 58.2677 52.4179C57.8968 52.3704 57.2074 52.3466 56.1995 52.3466C54.7162 52.3466 53.7082 52.3656 53.1757 52.4036L52.9761 52.4179C52.9761 54.177 53.0046 55.3181 53.0616 55.841L53.0902 56.112C53.1092 56.2832 53.1995 56.4068 53.3612 56.4829C53.5228 56.5494 53.8366 56.6303 54.3025 56.7254L54.2597 57.139C53.6607 57.1105 53.0093 57.0962 52.3057 57.0962C51.6021 57.0962 50.9507 57.1105 50.3517 57.139L50.3089 56.7254C50.7938 56.6303 51.1219 56.5447 51.293 56.4686C51.4642 56.3925 51.5593 56.2737 51.5783 56.112C51.6544 55.551 51.6924 54.5336 51.6924 53.0597C51.6924 50.6731 51.6639 49.185 51.6068 48.5954L51.5783 48.3102C51.5593 48.139 51.4737 48.0201 51.3216 47.9536C51.1694 47.8775 50.8651 47.7919 50.4087 47.6968L50.4515 47.2832C51.0506 47.3117 51.6781 47.326 52.3342 47.326C52.9903 47.326 53.6179 47.3117 54.217 47.2832L54.2597 47.6968C53.8033 47.7919 53.499 47.8775 53.3469 47.9536C53.1948 48.0201 53.1092 48.139 53.0902 48.3102C53.0236 48.7666 52.9856 49.8696 52.9761 51.6192C53.3469 51.6667 54.0315 51.6905 55.0299 51.6905C56.5228 51.6905 57.5355 51.6715 58.068 51.6334L58.2677 51.6192C58.2677 50.0598 58.2391 49.0376 58.1821 48.5526L58.1536 48.3102C58.1345 48.139 58.049 48.0201 57.8968 47.9536C57.7447 47.8775 57.4404 47.7919 56.984 47.6968L57.0268 47.2832ZM66.1656 52.532C66.1656 52.0946 66.042 51.7713 65.7948 51.5621C65.5475 51.3434 65.2718 51.2341 64.9675 51.2341C64.5206 51.2341 64.1355 51.41 63.8122 51.7618C63.4889 52.1136 63.275 52.5463 63.1704 53.0597L66.1228 52.9456C66.1513 52.803 66.1656 52.6651 66.1656 52.532ZM64.9247 57.2246C63.9168 57.2246 63.1561 56.9393 62.6426 56.3688C62.1292 55.7887 61.8724 55.0233 61.8724 54.0724C61.8724 53.112 62.1529 52.2848 62.7139 51.5907C63.2845 50.887 64.1402 50.5352 65.2813 50.5352C65.8613 50.5352 66.3653 50.7396 66.7932 51.1485C67.2306 51.5574 67.4493 52.1659 67.4493 52.9742L66.9643 53.559C66.9073 53.5494 66.4556 53.5447 65.6093 53.5447C64.7726 53.5447 63.9311 53.578 63.0848 53.6445V53.7729C63.0848 54.6382 63.2654 55.2895 63.6268 55.7269C63.9881 56.1548 64.4826 56.3688 65.1101 56.3688C65.7377 56.3688 66.3986 56.2166 67.0927 55.9124L67.2638 56.3402C66.5317 56.9298 65.752 57.2246 64.9247 57.2246ZM72.0417 54.101C71.262 54.12 70.6677 54.2674 70.2589 54.5431C69.85 54.8189 69.6456 55.1184 69.6456 55.4417C69.6456 55.765 69.7264 56.0027 69.888 56.1548C70.0592 56.2975 70.3302 56.3688 70.701 56.3688C71.0719 56.3688 71.5188 56.2119 72.0417 55.8981V54.101ZM73.0829 57.2246C72.5124 57.2246 72.1796 56.9155 72.0845 56.2975C71.2478 56.9155 70.5251 57.2246 69.9166 57.2246C69.5077 57.2246 69.1606 57.1009 68.8754 56.8537C68.5901 56.597 68.4475 56.2024 68.4475 55.6699C68.4475 55.1374 68.728 54.6572 69.289 54.2293C69.8595 53.8014 70.7771 53.5447 72.0417 53.4591V52.1327C72.0417 51.8664 71.9419 51.662 71.7422 51.5193C71.552 51.3767 71.2811 51.3054 70.9292 51.3054C70.5774 51.3054 70.2969 51.4052 70.0877 51.6049C69.8785 51.7951 69.7739 52.0423 69.7739 52.3466C69.7739 52.4607 69.7882 52.5891 69.8167 52.7317L69.5029 52.8743C69.3128 52.7697 69.1321 52.6271 68.9609 52.4464C68.7993 52.2658 68.7185 52.1374 68.7185 52.0613C68.7185 51.9758 68.7803 51.8569 68.9039 51.7048C69.037 51.5431 69.2129 51.372 69.4316 51.1913C69.6503 51.0106 69.9403 50.8585 70.3017 50.7349C70.6725 50.6018 71.0861 50.5352 71.5425 50.5352C71.999 50.5352 72.3698 50.6493 72.6551 50.8775C72.9403 51.0962 73.0829 51.5003 73.0829 52.0899C73.0829 52.6699 73.1115 53.9013 73.1685 55.784C73.178 56.2404 73.3492 56.4686 73.682 56.4686C73.8246 56.4686 73.972 56.4306 74.1242 56.3545L74.2668 56.7254C73.9055 57.0582 73.5108 57.2246 73.0829 57.2246ZM76.9059 46.8125C76.8869 48.0011 76.8774 49.7412 76.8774 52.0328C76.8774 54.3244 76.9297 55.784 77.0343 56.4116C77.0438 56.4781 77.1674 56.5447 77.4051 56.6112C77.6428 56.6778 77.852 56.7158 78.0327 56.7254L77.9899 57.139C77.5335 57.1105 76.982 57.0962 76.3354 57.0962C75.6888 57.0962 75.1373 57.1105 74.6809 57.139L74.7236 56.7254C74.9233 56.7063 75.1325 56.6683 75.3512 56.6112C75.5794 56.5447 75.6983 56.4781 75.7078 56.4116C75.7744 55.7935 75.8076 54.6049 75.8076 52.8458C75.8076 49.9837 75.7791 48.3102 75.7221 47.8252L75.6935 47.5827L74.7807 47.3117L74.7522 46.9409C75.3607 46.9409 75.9883 46.8553 76.6349 46.6842L76.9059 46.8125ZM81.0773 57.2246C80.0884 57.2246 79.5939 56.7491 79.5939 55.7983C79.6034 54.9615 79.6082 54.196 79.6082 53.5019C79.6082 52.7983 79.5987 52.0661 79.5797 51.3054L78.6668 51.3197L78.624 51.1628L78.9521 50.6065C79.0852 50.635 79.2849 50.654 79.5511 50.6636L79.4941 49.3514L80.4354 48.5098L80.7064 48.6382C80.6874 49.3418 80.6779 50.0122 80.6779 50.6493L82.7746 50.635L82.8459 50.8062L82.3324 51.3767C82.0091 51.3387 81.4576 51.3149 80.6779 51.3054V53.2166C80.6779 54.4052 80.6922 55.2563 80.7207 55.7697C80.7492 56.1976 81.0012 56.4116 81.4766 56.4116C81.857 56.4116 82.2754 56.3022 82.7318 56.0835L82.9029 56.5542C82.2278 57.0011 81.6193 57.2246 81.0773 57.2246ZM86.3567 57.139C85.9003 57.1105 85.3773 57.0962 84.7878 57.0962C84.1982 57.0962 83.6753 57.1105 83.2188 57.139L83.2616 56.7254C83.4423 56.7063 83.6325 56.6683 83.8322 56.6112C84.0413 56.5447 84.1507 56.4781 84.1602 56.4116C84.2268 55.7935 84.26 54.6049 84.26 52.8458C84.26 49.9837 84.2315 48.3102 84.1745 47.8252L84.1459 47.5827L83.2331 47.3117L83.2046 46.9409C83.8131 46.9409 84.4407 46.8553 85.0873 46.6842L85.3583 46.8125C85.3393 47.9251 85.3298 49.4417 85.3298 51.3624C86.3852 50.8109 87.3361 50.5352 88.1824 50.5352C88.6578 50.5352 89.0192 50.6303 89.2664 50.8205C89.5136 51.0106 89.6372 51.3672 89.6372 51.8902V53.83C89.6372 55.0566 89.6753 55.8553 89.7513 56.2261L89.7798 56.4116C89.7894 56.4781 89.894 56.5447 90.0936 56.6112C90.3028 56.6683 90.5025 56.7063 90.6927 56.7254L90.6499 57.139C90.1935 57.1105 89.6705 57.0962 89.081 57.0962C88.4914 57.0962 87.9684 57.1105 87.512 57.139L87.5548 56.7254C87.7355 56.7063 87.9257 56.6683 88.1253 56.6112C88.3345 56.5447 88.4439 56.4781 88.4534 56.4116C88.5295 56.0788 88.5675 55.2182 88.5675 53.83V52.4464C88.5675 52.0756 88.4581 51.8189 88.2394 51.6762C88.0207 51.5336 87.7593 51.4623 87.455 51.4623C87.1507 51.4623 86.9035 51.4766 86.7133 51.5051C86.5326 51.5241 86.3662 51.5526 86.2141 51.5907C85.8337 51.6953 85.5865 51.7713 85.4724 51.8189L85.3298 51.8617C85.3298 54.6857 85.3821 56.2024 85.4867 56.4116C85.4962 56.4781 85.6008 56.5447 85.8005 56.6112C86.0096 56.6683 86.2093 56.7063 86.3995 56.7254L86.3567 57.139Z" fill="#374E2D"/>
</g>
<defs>
<clipPath id="clip0_91_14">
<rect width="95" height="60.2866" fill="white" transform="translate(0 0.80957)"/>
</clipPath>
</defs>
</svg>
