<svg width="230" height="148" viewBox="0 0 230 148" fill="none" xmlns="http://www.w3.org/2000/svg">
<g clip-path="url(#clip0_24_2527)">
<path d="M141.673 45.7022H88.2833V43.0875H141.673V45.7022ZM85.7776 11.7608H83.1629V76.4578H85.7776V11.7608ZM146.8 11.7608H144.185V76.4578H146.8V11.7608ZM168.791 47.9108C168.315 47.5378 167.823 47.1812 167.321 46.8445C166.704 46.4318 166.067 46.0489 165.407 45.7022C162.657 44.2397 159.57 43.3318 156.295 43.1304C155.892 43.104 155.486 43.0908 155.08 43.0875C155.017 43.0875 154.955 43.0875 154.892 43.0875H149.309V45.7022H154.892C165.842 45.7022 174.753 54.6126 174.753 65.5666C174.753 76.5205 165.842 85.4276 154.892 85.4276H64.5201C53.5694 85.4276 44.659 76.5172 44.659 65.5666C44.659 54.6159 53.4803 45.7913 64.355 45.7055C64.038 45.5536 63.7277 45.3985 63.4174 45.2334C62.4204 44.7019 61.463 44.1043 60.5485 43.4408C50.0402 45.3226 42.041 54.5268 42.041 65.5666C42.041 77.9599 52.1234 88.0456 64.5201 88.0456H154.892C167.285 88.0456 177.371 77.9632 177.371 65.5666C177.371 58.4125 174.013 52.0309 168.791 47.9108ZM181.715 7.78596C177.43 3.31261 171.418 0.744141 165.218 0.744141H75.3353C62.8562 0.744141 52.6681 10.7935 52.6252 23.1439C52.6054 29.1656 54.9329 34.8275 59.1817 39.0896C60.7895 40.7039 62.602 42.0443 64.5564 43.0842C67.7653 44.7943 71.3638 45.6989 75.1042 45.6989H80.6505V43.0842H75.1042C69.7857 43.0842 64.7908 41.011 61.0338 37.2441C57.2801 33.4772 55.2234 28.4724 55.2399 23.1538C55.2795 12.2395 64.2923 3.36213 75.3353 3.36213H165.215C170.702 3.36213 176.027 5.63347 179.824 9.59842C183.601 13.5403 185.552 18.6871 185.321 24.0947C184.865 34.702 176.219 43.0215 165.611 43.0875C165.925 43.2361 166.239 43.3946 166.549 43.5596C167.562 44.0977 168.526 44.6986 169.441 45.3589C173.786 44.5896 177.81 42.5527 181.049 39.4428C185.245 35.4151 187.691 30.0042 187.939 24.207C188.199 18.0829 185.991 12.2494 181.719 7.78927L181.715 7.78596Z" fill="#43543C"/>
<path d="M16.1032 118.291C15.6031 116.466 14.9029 115.216 14.0028 114.54C13.1276 113.865 11.9773 113.528 10.5521 113.528C9.12677 113.528 8.03904 113.878 7.28889 114.578C6.53874 115.253 6.16366 116.091 6.16366 117.091C6.16366 118.716 7.00133 120.079 8.67667 121.179L14.6029 125.043C17.2034 126.743 18.5037 128.756 18.5037 131.081C18.5037 132.957 17.7535 134.594 16.2532 135.995C14.7779 137.37 12.615 138.058 9.7644 138.058C6.91381 138.058 4.4258 137.608 2.30037 136.707C2.70045 134.657 2.90049 132.819 2.90049 131.194L3.9132 130.744C4.28828 132.794 4.8759 134.207 5.67606 134.982C6.47622 135.757 7.71398 136.145 9.38932 136.145C11.0897 136.145 12.3774 135.732 13.2526 134.907C14.1528 134.082 14.6029 133.107 14.6029 131.981C14.6029 130.456 13.7902 129.168 12.1649 128.118L6.16366 124.18C3.86319 122.68 2.71295 120.754 2.71295 118.404C2.71295 116.578 3.4256 115.003 4.85089 113.678C6.27618 112.327 8.13906 111.652 10.4395 111.652C11.1897 111.652 12.0149 111.752 12.915 111.952C13.8402 112.127 14.5404 112.215 15.0155 112.215C15.4906 112.215 16.0407 112.14 16.6658 111.99V112.552C16.6658 114.378 16.8158 116.141 17.1159 117.841L16.1032 118.291ZM28.2677 121.667C27.5175 121.742 26.9549 121.892 26.5798 122.117C26.2048 122.342 26.0172 122.53 26.0172 122.68C26.0172 122.805 27.3425 126.955 29.993 135.132C32.7436 127.28 34.1189 123.155 34.1189 122.755C34.1189 122.204 33.4313 121.842 32.056 121.667L31.9434 120.579C32.7936 120.654 33.6938 120.692 34.644 120.692L38.4698 120.579L38.5823 121.667C37.307 121.842 36.5194 122.304 36.2193 123.055C35.1441 126.405 33.3312 131.281 30.7807 137.683C28.8553 142.559 27.0174 145.609 25.2671 146.834C24.767 147.185 24.3794 147.385 24.1043 147.435C23.8543 147.51 23.6042 147.547 23.3542 147.547C23.1041 147.547 22.7416 147.247 22.2665 146.647C21.8164 146.072 21.5163 145.497 21.3663 144.922L21.9289 144.209C22.404 144.434 22.9666 144.547 23.6167 144.547C25.4171 144.547 27.2175 142.259 29.0178 137.683L27.7051 136.895C25.7797 130.944 24.2919 126.78 23.2417 124.405L22.6791 123.205C22.354 122.379 21.5913 121.867 20.3911 121.667L20.2786 120.579C22.0039 120.654 23.3292 120.692 24.2544 120.692L28.1552 120.579L28.2677 121.667ZM44.8994 123.917L44.8619 129.093C44.8619 132.319 44.9619 134.419 45.162 135.395L45.237 135.882C45.262 136.057 45.537 136.232 46.0622 136.407C46.6123 136.557 47.1374 136.657 47.6375 136.707L47.525 137.795C46.3247 137.72 44.9494 137.683 43.3991 137.683C41.8488 137.683 40.4735 137.72 39.2733 137.795L39.3858 136.707C39.8609 136.657 40.361 136.557 40.8861 136.407C41.4362 136.232 41.7238 136.057 41.7488 135.882C41.9488 135.007 42.0488 133.257 42.0488 130.631C42.0488 126.38 41.9488 123.78 41.7488 122.83L39.3483 122.117L39.2733 121.142C40.8736 121.142 42.5239 120.917 44.2243 120.467L44.9369 120.804V122.605C47.7125 121.154 50.1255 120.429 52.1759 120.429C53.4262 120.429 54.3764 120.679 55.0265 121.179C55.6766 121.679 56.0017 122.617 56.0017 123.992V129.093C56.0017 132.319 56.0892 134.419 56.2642 135.395L56.3768 135.882C56.4018 136.057 56.6768 136.232 57.2019 136.407C57.752 136.557 58.2772 136.657 58.7773 136.707L58.6647 137.795C57.4645 137.72 56.0892 137.683 54.5389 137.683C52.9886 137.683 51.6133 137.72 50.413 137.795L50.5256 136.707C51.0007 136.657 51.5008 136.557 52.0259 136.407C52.576 136.232 52.8635 136.057 52.8886 135.882C53.0886 135.007 53.1886 132.744 53.1886 129.093V125.455C53.1886 124.48 52.9011 123.805 52.3259 123.43C51.7508 123.055 50.7756 122.867 49.4003 122.867C48.0251 122.867 46.5248 123.217 44.8994 123.917ZM68.3256 137.795C67.1254 137.72 65.7501 137.683 64.1998 137.683C62.6494 137.683 61.2742 137.72 60.0739 137.795L60.1864 136.707C60.6615 136.657 61.1616 136.557 61.6867 136.407C62.2369 136.232 62.5244 136.057 62.5494 135.882C62.7745 134.257 62.887 131.131 62.887 126.505C62.887 118.979 62.812 114.578 62.6619 113.303L62.5869 112.665L60.1864 111.952L60.1114 110.977C61.7117 110.977 63.3621 110.752 65.0624 110.302L65.7751 110.64C65.7251 113.765 65.7001 118.379 65.7001 124.48V127.481L71.7013 122.98C71.8763 122.83 71.9638 122.68 71.9638 122.53C71.9638 121.979 71.2137 121.692 69.7134 121.667L69.8259 120.579C71.3762 120.654 72.7015 120.692 73.8017 120.692C74.9019 120.692 76.2147 120.654 77.74 120.579L77.8525 121.667C76.3272 121.892 75.002 122.404 73.8767 123.205L69.0758 126.768L76.2772 136.07C76.5273 136.37 77.0024 136.557 77.7025 136.632C77.8526 136.632 78.0526 136.645 78.3026 136.67C78.5527 136.695 78.7152 136.707 78.7902 136.707L78.6777 137.795C77.2524 137.795 75.6396 137.87 73.8392 138.02L66.9003 128.343L65.7376 129.206C65.8126 132.056 65.9126 134.282 66.0376 135.882C66.0626 136.057 66.3377 136.232 66.8628 136.407C67.4129 136.557 67.938 136.657 68.4381 136.707L68.3256 137.795ZM90.7402 120.204C90.9403 120.204 91.2654 120.504 91.7154 121.104C92.1905 121.679 92.5031 122.254 92.6531 122.83L92.0905 123.542C91.1903 123.192 90.2526 123.017 89.2774 123.017C88.3022 123.017 87.4146 123.43 86.6144 124.255C85.8142 125.055 85.4142 126.355 85.4142 128.156C85.4392 132.557 85.5517 135.12 85.7517 135.845C85.7767 136.045 86.1268 136.232 86.8019 136.407C87.5021 136.557 88.2272 136.657 88.9774 136.707L88.8649 137.795C87.6646 137.72 86.1393 137.683 84.2889 137.683C82.4636 137.683 80.9507 137.72 79.7505 137.795L79.863 136.707C80.3631 136.657 80.8882 136.557 81.4383 136.407C81.9885 136.232 82.276 136.057 82.301 135.882C82.5011 135.007 82.6011 133.257 82.6011 130.631C82.6011 126.38 82.5011 123.78 82.301 122.83L79.9005 122.117L79.8255 121.142C81.4258 121.142 83.0762 120.917 84.7765 120.467L85.4892 120.804C85.4392 121.179 85.4142 122.204 85.4142 123.88C86.1393 122.68 87.052 121.767 88.1522 121.142C89.2774 120.517 90.1401 120.204 90.7402 120.204ZM101.976 122.267C100.951 122.267 100.063 122.53 99.3131 123.055C98.5629 123.555 98.0128 124.192 97.6628 124.968C96.9876 126.393 96.65 127.756 96.65 129.056C96.65 131.106 97.0626 132.819 97.8878 134.194C98.713 135.545 100.013 136.22 101.789 136.22C102.739 136.22 103.576 136.007 104.302 135.582C105.027 135.132 105.577 134.557 105.952 133.857C106.677 132.557 107.065 131.256 107.115 129.956C107.115 124.83 105.402 122.267 101.976 122.267ZM102.164 120.429C105.014 120.429 107.09 121.154 108.39 122.605C109.69 124.055 110.34 126.08 110.34 128.681C110.34 131.256 109.59 133.457 108.09 135.282C106.615 137.107 104.452 138.02 101.601 138.02C98.7505 138.02 96.6751 137.308 95.3748 135.882C94.0745 134.432 93.4244 132.419 93.4244 129.844C93.4244 127.268 94.162 125.055 95.6373 123.205C97.1376 121.354 99.3131 120.429 102.164 120.429ZM139.945 111.877C141.52 111.952 143.171 111.99 144.896 111.99C146.621 111.99 148.272 111.952 149.847 111.877L149.96 112.965C148.759 113.215 147.959 113.44 147.559 113.64C147.159 113.815 146.934 114.128 146.884 114.578C146.684 116.053 146.584 118.729 146.584 122.605C146.584 128.881 146.659 132.782 146.809 134.307L146.884 135.095C146.934 135.545 147.172 135.87 147.597 136.07C148.022 136.245 148.847 136.457 150.072 136.707L149.96 137.795C148.384 137.72 146.671 137.683 144.821 137.683C142.971 137.683 141.258 137.72 139.682 137.795L139.57 136.707C140.845 136.457 141.708 136.232 142.158 136.032C142.608 135.832 142.858 135.52 142.908 135.095C143.108 133.769 143.208 130.531 143.208 125.38C142.233 125.255 140.42 125.193 137.77 125.193C133.869 125.193 131.218 125.243 129.818 125.343L129.293 125.38C129.293 130.006 129.368 133.007 129.518 134.382L129.593 135.095C129.643 135.545 129.88 135.87 130.306 136.07C130.731 136.245 131.556 136.457 132.781 136.707L132.669 137.795C131.093 137.72 129.38 137.683 127.53 137.683C125.68 137.683 123.967 137.72 122.391 137.795L122.279 136.707C123.554 136.457 124.417 136.232 124.867 136.032C125.317 135.832 125.567 135.52 125.617 135.095C125.817 133.619 125.917 130.944 125.917 127.068C125.917 120.792 125.842 116.878 125.692 115.328L125.617 114.578C125.567 114.128 125.342 113.815 124.942 113.64C124.542 113.44 123.742 113.215 122.541 112.965L122.654 111.877C124.229 111.952 125.88 111.99 127.605 111.99C129.33 111.99 130.981 111.952 132.556 111.877L132.669 112.965C131.468 113.215 130.668 113.44 130.268 113.64C129.868 113.815 129.643 114.128 129.593 114.578C129.418 115.778 129.318 118.679 129.293 123.28C130.268 123.405 132.068 123.467 134.694 123.467C138.62 123.467 141.283 123.417 142.683 123.317L143.208 123.28C143.208 119.179 143.133 116.491 142.983 115.216L142.908 114.578C142.858 114.128 142.633 113.815 142.233 113.64C141.833 113.44 141.033 113.215 139.833 112.965L139.945 111.877ZM163.977 125.68C163.977 124.53 163.652 123.68 163.002 123.13C162.352 122.555 161.627 122.267 160.827 122.267C159.652 122.267 158.639 122.73 157.789 123.655C156.939 124.58 156.376 125.718 156.101 127.068L163.865 126.768C163.94 126.393 163.977 126.03 163.977 125.68ZM160.714 138.02C158.064 138.02 156.063 137.27 154.713 135.77C153.363 134.244 152.688 132.232 152.688 129.731C152.688 127.205 153.425 125.03 154.901 123.205C156.401 121.354 158.651 120.429 161.652 120.429C163.177 120.429 164.503 120.967 165.628 122.042C166.778 123.117 167.353 124.717 167.353 126.843L166.078 128.381C165.928 128.356 164.74 128.343 162.515 128.343C160.314 128.343 158.101 128.431 155.876 128.606V128.943C155.876 131.219 156.351 132.932 157.301 134.082C158.251 135.207 159.552 135.77 161.202 135.77C162.852 135.77 164.59 135.37 166.415 134.569L166.866 135.695C164.94 137.245 162.89 138.02 160.714 138.02ZM179.43 129.806C177.38 129.856 175.817 130.244 174.742 130.969C173.666 131.694 173.129 132.482 173.129 133.332C173.129 134.182 173.341 134.807 173.766 135.207C174.217 135.582 174.929 135.77 175.904 135.77C176.88 135.77 178.055 135.357 179.43 134.532V129.806ZM182.168 138.02C180.668 138.02 179.793 137.208 179.543 135.582C177.342 137.208 175.442 138.02 173.841 138.02C172.766 138.02 171.854 137.695 171.103 137.045C170.353 136.37 169.978 135.332 169.978 133.932C169.978 132.532 170.716 131.269 172.191 130.144C173.691 129.018 176.104 128.343 179.43 128.118V124.63C179.43 123.93 179.168 123.392 178.642 123.017C178.142 122.642 177.43 122.455 176.504 122.455C175.579 122.455 174.842 122.717 174.292 123.242C173.741 123.742 173.466 124.392 173.466 125.193C173.466 125.493 173.504 125.83 173.579 126.205L172.754 126.58C172.254 126.305 171.779 125.93 171.328 125.455C170.903 124.98 170.691 124.642 170.691 124.442C170.691 124.217 170.853 123.905 171.178 123.505C171.528 123.08 171.991 122.63 172.566 122.154C173.141 121.679 173.904 121.279 174.854 120.954C175.829 120.604 176.917 120.429 178.117 120.429C179.318 120.429 180.293 120.729 181.043 121.329C181.793 121.904 182.168 122.967 182.168 124.517C182.168 126.043 182.243 129.281 182.393 134.232C182.418 135.432 182.868 136.032 183.743 136.032C184.119 136.032 184.506 135.932 184.906 135.732L185.281 136.707C184.331 137.583 183.293 138.02 182.168 138.02ZM192.221 110.64C192.171 113.765 192.146 118.341 192.146 124.367C192.146 130.394 192.284 134.232 192.559 135.882C192.584 136.057 192.909 136.232 193.534 136.407C194.159 136.582 194.709 136.682 195.184 136.707L195.072 137.795C193.872 137.72 192.421 137.683 190.721 137.683C189.021 137.683 187.57 137.72 186.37 137.795L186.483 136.707C187.008 136.657 187.558 136.557 188.133 136.407C188.733 136.232 189.046 136.057 189.071 135.882C189.246 134.257 189.333 131.131 189.333 126.505C189.333 118.979 189.258 114.578 189.108 113.303L189.033 112.665L186.633 111.952L186.558 110.977C188.158 110.977 189.808 110.752 191.509 110.302L192.221 110.64ZM203.191 138.02C200.59 138.02 199.29 136.77 199.29 134.269C199.315 132.069 199.328 130.056 199.328 128.231C199.328 126.38 199.303 124.455 199.253 122.455L196.852 122.492L196.74 122.079L197.602 120.617C197.952 120.692 198.477 120.742 199.178 120.767L199.028 117.316L201.503 115.103L202.216 115.441C202.166 117.291 202.141 119.054 202.141 120.729L207.654 120.692L207.842 121.142L206.492 122.642C205.641 122.542 204.191 122.48 202.141 122.455V127.481C202.141 130.606 202.178 132.844 202.253 134.194C202.328 135.32 202.991 135.882 204.241 135.882C205.241 135.882 206.342 135.595 207.542 135.02L207.992 136.257C206.217 137.433 204.616 138.02 203.191 138.02ZM217.074 137.795C215.874 137.72 214.499 137.683 212.948 137.683C211.398 137.683 210.023 137.72 208.823 137.795L208.935 136.707C209.41 136.657 209.91 136.557 210.435 136.407C210.986 136.232 211.273 136.057 211.298 135.882C211.473 134.257 211.561 131.131 211.561 126.505C211.561 118.979 211.486 114.578 211.336 113.303L211.261 112.665L208.86 111.952L208.785 110.977C210.385 110.977 212.036 110.752 213.736 110.302L214.449 110.64C214.399 113.565 214.374 117.553 214.374 122.605C217.149 121.154 219.65 120.429 221.875 120.429C223.126 120.429 224.076 120.679 224.726 121.179C225.376 121.679 225.701 122.617 225.701 123.992V129.093C225.701 132.319 225.801 134.419 226.001 135.395L226.076 135.882C226.101 136.057 226.376 136.232 226.901 136.407C227.451 136.557 227.977 136.657 228.477 136.707L228.364 137.795C227.164 137.72 225.789 137.683 224.238 137.683C222.688 137.683 221.313 137.72 220.112 137.795L220.225 136.707C220.7 136.657 221.2 136.557 221.725 136.407C222.275 136.232 222.563 136.057 222.588 135.882C222.788 135.007 222.888 132.744 222.888 129.093V125.455C222.888 124.48 222.6 123.805 222.025 123.43C221.45 123.055 220.763 122.867 219.962 122.867C219.162 122.867 218.512 122.905 218.012 122.98C217.537 123.03 217.099 123.105 216.699 123.205C215.699 123.48 215.049 123.68 214.749 123.805L214.374 123.917C214.374 131.344 214.511 135.332 214.786 135.882C214.811 136.057 215.086 136.232 215.612 136.407C216.162 136.557 216.687 136.657 217.187 136.707L217.074 137.795Z" fill="#43543C"/>
</g>
<defs>
<clipPath id="clip0_24_2527">
<rect width="229" height="146.938" fill="white" transform="translate(0.5 0.744141)"/>
</clipPath>
</defs>
</svg>
